<?xml version="1.0" encoding="UTF-8"?>
<svg id="uuid-b90ba6f8-3150-4d7d-8cc6-a6cd7bc85fdc" data-name="Layer 1" xmlns="http://www.w3.org/2000/svg" viewBox="0 0 764.09 798.11">
  <defs>
    <style>
      .uuid-87dae85a-82d8-4bec-9a82-70c927251bc0 {
        fill: none;
      }
    </style>
  </defs>
  <path id="uuid-60604012-fced-4701-981f-2a89135e2b12" data-name="Arctic Logo" d="M578.25,88.55v38.39c48.33,32.86,88.05,77.53,114.93,129.82h-165.92l-61.35-151.57-36.9,13.48-50.34-84.47-83.74,128.49-37.63-42.99-43.72,137.06H71.04c26.92-52.29,66.61-96.96,114.97-129.82v-38.42C74.73,155.34.17,277.17.17,416.13c0,210.63,171.33,381.96,381.96,381.96s381.92-171.33,381.92-381.96c0-138.92-74.56-260.79-185.8-327.58ZM477.45,385.93l17.25,7.27-79.71,174.68,62.45-181.96ZM305.09,461.03l79.59,20.37-4.8,17.14-83.97-29.48-9.37-102.71,18.55,94.67ZM382.13,765.72c-5.52,0-11.12-.15-16.57-.42h0c-185.12-8.64-333.03-161.96-333.03-349.17,0-52.1,11.46-101.56,31.99-146.04h144.83l-15.42,48.33,30.01,205.26,52.25,15.94,98.77,216.36c-.04.16,65.78-121.3,65.78-121.3l38.92-4.84,98.21-248.07-45.2-111.69h167.03c20.53,44.48,31.99,93.95,31.99,146.04,0,192.77-156.82,349.59-349.56,349.59Z"/>
  <path class="uuid-87dae85a-82d8-4bec-9a82-70c927251bc0" d="M382.04,34.34C171.28,34.34,0,205.62,0,416.39s171.28,381.55,382.04,381.55,382.04-171.28,382.04-381.55S592.81,34.34,382.04,34.34ZM382.04,765.85c-192.99,0-349.46-156.96-349.46-349.47S189.05,66.43,382.04,66.43s349.47,156.96,349.47,349.96-156.96,349.47-349.47,349.47Z"/>
</svg>