<?xml version="1.0" encoding="UTF-8"?>
<svg id="uuid-0708e4ae-2d23-4c07-ba56-f5966a9092b5" data-name="Ebene 1" xmlns="http://www.w3.org/2000/svg" viewBox="0 0 370.06 259.32">
  <defs>
    <style>
      .uuid-30e46f61-1b12-4354-98b3-c60ba266426f {
        fill: #000;
      }

      .uuid-30e46f61-1b12-4354-98b3-c60ba266426f, .uuid-8810b62f-feb1-4393-988e-767e58f90452 {
        stroke-width: 0px;
      }

      .uuid-8810b62f-feb1-4393-988e-767e58f90452 {
        fill: #dfc425;
      }
    </style>
  </defs>
  <path class="uuid-8810b62f-feb1-4393-988e-767e58f90452" d="M225.58,61.87c8.66,8.17,14.59,22.88,20.24,31.1C229.04,45.16,177.62,12.96,127.17,20.26c-44.5,5.18-82.65,39.25-92.95,82.88-4.12,15.29-8.64,31.56-4.4,47.31,1.07,5.14,2.58,9.83,3.36,14.78.11,6.46-4.96-11.2-4.68-12.11-1.8-10.41-4.6-20.77-4.02-31.37-.16-1.04.7-8.45-.33-7.17-3.33,18.76,1.78,38.51,6.99,56.53-1.94-1.07-3.18-8.13-4.48-9.22,3.34,25.49-8.84-23.27-7.69-28.02-2.2-12.87-.72-25.75,3.49-38.04C45.29-9.4,192.45-35.05,250.63,54.56c38.77,54.37,23.15,137.98-31.73,175.81-2.24,1.64-3.01.15-5.64.91-2.82,1.02-5.32,3.04-7.95,4.52-41.51,22.55-96.53,15.56-132.96-13.74,6.78,3.11,14.43,11.11,22.61,12.8.35-1.1-7.15-4.53-7.33-5.34,29.25,16.06,66.73,23.01,98.77,10.26-39.84,11.64-88.15,3.62-117.9-26.91,13.08,10.32,26.98,19.93,43.24,25.14,12.87,2.93-12.83-5.89-14.71-7.32-3.6-1.79-4.81-3.12-.99-1.35,27.69,14.66,74.24,17.34,96.94,1.7-21.87,8.95-46.63,11.71-69.74,6.03-5.95-2.15,6.37.45,7.64.53,17.76,2.95,44.75.75,57.21-7.13-13.52,3.87-27.67,8.21-41.93,7.16,36.31-1.17,72.09-19.64,88.71-52.95,2.46-4.89,4.77-9.56,8.96-13.04,7.19-18.81,10.74-39.69,5.83-59.6-1.55-6.74-2.59-14.52-6.32-20.42-.17-.09-.22.15-.14.67,1.86,6.7,4.77,13.5,5.14,20.43-.05.35-.23.1-.45-.67-2.55-12.84-7.73-25.15-13.87-36.61-1.61-4.66-7.49-8.83-8.45-13.59ZM32.13,77.71c-.04.24.01.35.06.13-.02-.14-.25.01-.13-.05.24-.23.55-.8.83-1.01.05-.25-.73.03-.44.25.15.09-.34.35-.29.55M229.98,204c11.67-11.92,18.37-28.45,24.18-43.86,6.76-22.87,5.71-49.64-4.23-71.36,11.9,38.51,4.26,83.17-19.99,115.24M213.29,27.93c-5.03-3.85-10.83-7.64-16.53-9.92,5.25,3.05,11.7,7.73,16.59,9.97M238.39,184.96c-7.83,11.63-16.73,22.84-27.51,32.05-1.18,1.15-.66,1.16.57.39,11.04-8.17,21.57-20.51,26.99-32.47M123.72,7.2c-2.16,1.6-5.88,1.03-7.58,1.86-.53.15-5.7,2.33-2.79,1.81,17.93-5.09,36.91-5.6,55.21-1.98,1.95-.14,21.75,6.18,16.83,3.49-12.65-5.13-26.31-6.88-39.83-7.16-4.48-1.01,8.32-.38,8.3-.79C104.29-1.11,52.14,30.08,32.33,75.52c-.06.62,1.41-1.77,1.68-2.3C52.68,40.55,85.57,11.61,123.73,7.16v.03ZM196.27,17.46c-.04.16-.05.28.13.29v-.24s-.13-.05-.13-.05ZM193.88,243.47c-58.71,21.76-127.07-4.67-157.55-58.8,25.96,55.68,101.48,84.19,157.56,58.82M186.42,37.14c7.71,5.86,17.05,9.94,24.45,16.51,1.12.73,1.1.32.3-.6-7.12-6.33-15.73-13.01-24.74-15.95M207.7,210.15c7.52-5.94,13.95-14.02,19.14-21.96.54-1.14.37-1.25-.45-.32-5.26,7.9-13.21,15.39-18.75,22.31M199.58,220.96c-5.69,1.79-10.79,5.42-15.6,8.47,5.33-1.78,10.72-5.69,15.61-8.44M87.79,225.15c-1.25-2.28-4.49-3.22-6.44-5.02-3.32-1.23,5.95,5.23,6.41,5.09M87.8,225.33c1.05.5,2.04,1.79,3.29,1.97,1.07-.43-1.17-1.38-1.58-1.61-.39-.25-1.54-1.06-1.75-.44M242.89,169.37c-.73-.55-.98.6-1.17,1.12-.14.42-.9,1.8.05,1.48.42-.66,1.22-1.68,1.19-2.49M116.62,234.87c-.41.76,1.53.91,1.85.54,0-.63-1.34-.78-1.78-.6M243.1,167.17c-.08.09-.17.13-.2.2.21.54.89-.52.2-.2M227.17,186.93c.14-.06.22-.16.2-.32-.49-.15-.83.67-.2.32M118.51,235.57c.17.24.83-.12.51-.29-.11.04-.77.02-.51.29M185.45,36.74c-.03.07-.05.14-.05.14.12.12.53.2.31-.08-.12,0-.19-.03-.26-.06M185.79,37.11c.44.21.37-.3-.06-.14l.06.14Z"/>
  <g>
    <path class="uuid-30e46f61-1b12-4354-98b3-c60ba266426f" d="M294.9,256.34c-3.87,1.09-8.06,2.22-12.09,1.58-3.16-.7-6.47-2.89-8.12-5.46-1.19-1.83-1.49-4.07-1.69-6.23-.43-5.25-.32-10.56-.44-15.84-.31-5.08-.42-10.22-.63-15.26-.88-3.64-2.72,5.41-3.09,6.14-.97,3.37-2.07,6.75-3.04,10.12-.57,2.02-.92,4.39-2.44,5.88-.9.92-2.09,1.47-3.29,1.9-5.25,2.06-11.73,2.57-16.59-.68-1.14-.91-2.01-1.69-2.91-2.86-1.59-2.3-1.72-5.18-2.69-7.79-1.27-4.14-2.7-8.37-4.12-12.41-.17-.95-1.41-3.65-1.8-1.21-.07.96.12,2.16.12,3.25-.14,5.37.13,10.74-.06,16.1-.59,5.82-.78,11.61-.72,17.46.3,6.51-7.33,6.81-12.15,6.76-3.94.11-7.85-.86-10.55-3.92-2.8-3.46-2.18-8.07-1.72-12.12.95-10.39.77-20.79,1.5-31.22.82-7.28,1.18-14.53,1.24-21.87.11-3.35.41-7.21,3.2-9.46,4.32-3.44,10.12-4.77,15.52-4.08,5.84.57,12.23,2.98,14.47,8.94,2.4,6.2,4.53,12.62,6.48,18.93.29,1.16,1.7,9.61,3.94,6.2.77-1.79,1.08-3.81,1.75-5.64,2.02-7.2,4.08-14.33,6.82-21.31,2.18-7.55,11.48-7.76,18.07-6.99,4.9.91,11.46,2.61,12.11,8.49.44,3.63.97,7.25,1.46,10.87.3,3.16.3,6.38.94,9.49.38,1.94.5,3.9.51,5.87.06,5.43,1,10.81,1.44,16.21.36,7.15.82,14.28,1.65,21.4.26,3.25,1.21,7.57-2.9,8.7l-.18.07Z"/>
    <path class="uuid-30e46f61-1b12-4354-98b3-c60ba266426f" d="M369.54,251.51c-1.1,4.38-5.69,6.37-9.86,6.15-11.99.1-24.04.08-36.04,0-4.11.16-7.9-1.93-10.28-5.3-4.53-6.82-2.15-15.52-2.75-23.19-.05-12.89-.01-25.53.1-38.39-.22-8.18,5.61-14.38,13.9-14.09,12.33-.08,24.71-.09,37.04-.03,1.96.11,4.37.13,5.71,1.73,3.02,4.74,3.33,12.5-1.07,16.47-1.46,1.19-3.42,1.56-5.27,1.63-3.54.08-7.04.05-10.56.06-4.49.06-8.99-.14-13.48.08-2.09.13-1.71,2.36-1.64,3.86.12,1.91-.54,4.84,1.94,5.1,6.66.28,13.32,0,19.99.11,1.85.04,3.91-.09,5.57.79,3.08,2.06,3.76,8.33,3.03,11.93-.82,3.84-4.1,7.37-8.2,7.17-6.57.06-13.12-.04-19.69.04-1.79,0-2.71.64-2.62,2.6.03,1.97.08,3.91.03,5.89-.2,2.92,1.06,3.82,3.69,3.7,7.55-.02,15.06-.01,22.6,0,1.69.05,3.71-.15,5.23.63,3.44,2.99,3.62,8.83,2.71,12.89l-.05.19Z"/>
    <path class="uuid-30e46f61-1b12-4354-98b3-c60ba266426f" d="M198.85,221c2.04-17.49-6.38-37.39-23.61-43.78-4.08-1.89-8.56-2.58-13.03-3.13-5.11-1.11-10.44-.42-15.47.71-18.5,3.78-30.18,19.52-30.75,38.06-.77,11.2,1.89,22.41,8.17,31.72,1.97,2.06,3.92,4.39,6.21,6.15,3.22,1.92,6.26,4.38,9.8,5.58,5.11,1.56,10.23,3.31,15.66,2.99,4.28.1,8.48-.62,12.67-1.44,4.47-.35,8.6-2.64,12.42-4.67,2.17-1.48,4.14-3.44,6.18-5.13,7.35-6.81,11.08-17.06,11.72-26.86l.02-.19ZM141.83,219.67c-.3-5.2-.65-10.88,1.55-15.66,2.31-5.34,7.84-9.4,13.78-9.11,12.79.15,16.48,10.91,16.18,21.98-.18,6.85-1.2,14.8-7.54,18.7-12.37,7.13-24.39-2.19-23.96-15.72v-.19Z"/>
    <path class="uuid-30e46f61-1b12-4354-98b3-c60ba266426f" d="M105.53,243.94c.08,2.6-.43,5.3-.48,7.99.09,1.87-.29,3.92-2.37,4.48-2.94,1.05-6.14,1.27-9.25,1.32-5.84.45-11.63-1.68-13.39-7.81-1.36-4.54-.2-9.41-.92-13.99-.21-2.02.22-3.96-.18-5.92-.13-1.48.47-2.94.28-4.45.15-14.83.15-29.87.16-44.73-.16-2.83,1.85-4.85,4.62-5.05,2.35-.29,4.71-.74,7.08-.77,7.14.05,13.38,2.19,14.04,10.17.85,19.46.03,39.12.4,58.59v.17Z"/>
    <path class="uuid-30e46f61-1b12-4354-98b3-c60ba266426f" d="M68.83,228.7c-.63-4.4-4.07-8.55-7.29-11.5-.91-.94-2.93-1.3-3.13-2.71.08-.7.61-1.08,1.05-1.51,3.73-3.04,6.57-7.86,7.19-12.68.44-12.92-7.51-20.89-19.63-23.74-10.74-2.07-21.89-2.24-32.72-.1-5.72.83-13.81,2.22-14.19,9.36-.16,19.46-.12,38.94-.04,58.43,0,2.53.47,5.16,1.94,7.23,6.81,8.95,24.87,7.83,35.14,7.74,18.97-1.83,33.62-8.54,31.69-30.32v-.18ZM25.7,195.09c3.8-.26,7.92-.31,11.57.86,1.3.44,2.61.86,3.25,1.88,2.34,4.72-.09,9.12-5.57,9.26-2.74.29-5.52.16-8.26.07-.58-.04-1.24-.14-1.62-.57-.84-1.04-.3-3.12-.35-4.53.03-1.13.03-2.26-.04-3.39-.07-1.46-.56-3.19.86-3.55l.16-.04ZM43.66,232.63c-.94,7.97-11.33,6.65-17.28,6.6-1.21-.16-1.66-1.27-1.67-2.36-.07-2.81.22-5.55-.1-8.32-.82-3.91,2.77-2.81,5.29-2.98,5.15-.1,14.75-.5,13.77,7.06Z"/>
  </g>
</svg>