<?xml version="1.0" encoding="UTF-8"?>
<svg id="uuid-0c9e2456-968a-45c7-a5e8-6ac80561bac9" data-name="Layer 1" xmlns="http://www.w3.org/2000/svg" viewBox="0 0 596.56 686.51">
  <defs>
    <style>
      .uuid-adfb7124-129d-4575-a394-10037967cd0a {
        fill: #e0c523;
      }
    </style>
  </defs>
  <g>
    <path class="uuid-adfb7124-129d-4575-a394-10037967cd0a" d="M441.4,351.76c0,12.9-1.71,25.4-4.91,37.29-1.57-1.71-3.5-3.2-5.73-4.42-4.19-2.28-8.88-3.34-12.5-4.01l-.66-.1c-23.6-2.76-30.88,8.2-33.13,15.36-.98,2.51-1.89,5.04-2.76,7.58-.69-1.93-1.39-3.79-2.1-5.61-3.72-9.83-13.28-16.2-26.25-17.5-9.71-1.19-19.42,1.43-26.73,7.25-7.27,5.87-7.56,14.9-7.7,19.24v.23c-.02,1.26-.04,2.5-.06,3.73-.05-.1-.1-.2-.15-.3-6.38-12.68-16.59-22.2-28.8-26.83-6.24-2.82-12.75-3.83-18.43-4.54-8.69-1.76-17.25-.3-22.99.98-17.62,3.62-31.69,14.76-39.5,30.1-.06-2.61-.16-5.22-.27-7.82l-.03-.39c-.54-6.52-4.29-21.69-27.39-21.85h-.22c-2.73.05-5.29.41-7.55.73-.71.1-1.42.2-2.13.29-4.96.44-9.12,2.86-11.73,6.44-2.96-11.45-4.53-23.47-4.53-35.85,0-79.04,64.08-143.12,143.13-143.12s143.12,64.08,143.12,143.12Z"/>
    <path d="M595.42,349.2c-1.67-1.48-3.51-2.36-5.74-2.81l-8.02-1.33c-5.35-.94-10.69-1.66-16.04-2.46-16.64-2.32-33.31-3.98-49.93-5.99-.72-10.45-2.18-20.7-4.33-30.69,1.19-.06,2.38-.11,3.57-.19l4.05-.21c.96-.12,1.73-.45,2.41-1.01,1.16-.97,1.46-2.68.77-4.03-.8-1.57-1.7-2.65-3.18-3.41l-4.05-1.63c-2.26-.93-4.53-1.79-6.81-2.61-8.06-28.68-21.87-54.98-40.08-77.58-.86-2.43-.86-4.01-.65-5.37.69-4.2,1.44-8.75,2.3-13.29,1.26-6.65-4.56-12.48-11.21-11.22-3.19.61-6.34,1.15-9.21,1.61-2.9.4-4.94,1.2-7.93.5-24.03-20.95-52.68-36.73-84.2-45.58-.81-2.27-1.67-4.54-2.6-6.79l-1.63-4.05c-.76-1.48-1.84-2.38-3.41-3.18-1.35-.68-3.06-.39-4.03.77-.56.68-.89,1.45-1.01,2.41l-.21,4.05c-.08,1.19-.13,2.37-.19,3.56-9.97-2.14-20.19-3.6-30.61-4.32-.72-5.94-1.4-11.89-2.1-17.85-1.81-16.06-3.68-32.15-6.36-48.12l-1.33-8.02c-.46-2.23-1.34-4.07-2.82-5.74-1.35-1.51-3.77-1.51-5.12,0-1.49,1.67-2.36,3.51-2.82,5.74l-1.33,8.02c-.93,5.35-1.65,10.69-2.46,16.04-2.32,16.64-3.98,33.31-5.99,49.93-10.45.72-20.69,2.18-30.69,4.33-.06-1.19-.11-2.38-.19-3.57l-.21-4.05c-.12-.96-.45-1.73-1.01-2.41-.97-1.16-2.68-1.45-4.03-.77-1.57.8-2.64,1.7-3.41,3.18l-1.63,4.05c-.93,2.26-1.79,4.53-2.61,6.81-28.68,8.06-54.97,21.87-77.58,40.08-2.43.86-4.01.86-5.37.65-4.19-.69-8.75-1.44-13.29-2.3-6.65-1.26-12.48,4.56-11.21,11.21.61,3.2,1.15,6.34,1.6,9.21.41,2.9,1.2,4.94.5,7.93-20.95,24.03-36.73,52.68-45.58,84.2-2.27.81-4.54,1.67-6.78,2.6l-4.06,1.63c-1.48.77-2.38,1.84-3.18,3.41-.68,1.35-.39,3.06.77,4.03.68.56,1.45.89,2.41,1.01l4.06.21c1.18.08,2.37.13,3.55.19-2.14,9.97-3.6,20.19-4.32,30.61-5.94.72-11.89,1.4-17.85,2.1-16.06,1.81-32.15,3.68-48.12,6.37,0,0-7.96,1.32-8.02,1.32-2.23.46-4.07,1.34-5.74,2.82-1.51,1.35-1.51,3.77.01,5.12,1.66,1.49,3.5,2.37,5.73,2.82l8.02,1.33c5.35.94,10.7,1.66,16.04,2.46,16.64,2.32,33.31,3.98,49.93,5.99.36,5.18.9,10.32,1.61,15.4.52-.08,1-.16,1.44-.22,4.29-.84,8.64-1.42,13.03-1.74-.54-3.8-.98-7.64-1.3-11.51,8.13,1.13,16.25,2.45,24.33,4.02.33,2.77.71,5.52,1.16,8.25,2.36.31,4.74.69,7.11,1.15l.4.08c3.87.91,7.44,2.17,10.67,3.73-2.39-11.07-3.65-22.55-3.65-34.32,0-89.66,72.95-162.61,162.62-162.61s162.61,72.95,162.61,162.61c0,11.81-1.26,23.32-3.67,34.42,4.38-2.72,9.55-4.09,15.04-3.94,1,0,1.99,0,2.98-.02.53-3.11.98-6.24,1.35-9.4,8.09-1.58,16.2-2.87,24.32-3.99-.38,4.48-.9,8.93-1.57,13.32,5,0,9.92.01,14.75.03.71-5.02,1.25-10.11,1.6-15.24,5.94-.72,11.89-1.4,17.85-2.1,16.06-1.81,32.15-3.68,48.12-6.37l8.02-1.33c2.23-.45,4.08-1.33,5.74-2.81,1.51-1.35,1.51-3.77,0-5.13ZM119.97,330.71c-8.09,1.58-16.2,2.87-24.33,3.99.81-9.68,2.3-19.16,4.42-28.41,7.4,0,14.8-.13,22.12-.03.78.01,1.57.04,2.35.06-2.07,7.93-3.59,16.08-4.56,24.39ZM222.68,188.92c-38.38,17.89-69.41,48.94-87.28,87.33-9.69,4.92-19.85,8.08-30.04,11.19,20.21-60.46,68.07-108.34,128.52-128.57-3.11,10.2-6.27,20.36-11.2,30.05ZM277.17,173.46c-8.32.98-16.47,2.5-24.4,4.58-.02-.79-.05-1.58-.06-2.38-.1-7.31.03-14.71.03-22.1,9.26-2.12,18.76-3.62,28.45-4.43-1.13,8.13-2.45,16.24-4.02,24.33ZM343.78,175.66c0,.79-.04,1.58-.05,2.36-7.94-2.08-16.09-3.59-24.4-4.56-1.58-8.1-2.87-16.2-3.99-24.33,9.68.81,19.16,2.3,28.41,4.42,0,7.39.13,14.8.03,22.11ZM373.79,188.89c-4.92-9.69-8.07-19.85-11.19-30.05,60.46,20.22,108.34,68.08,128.57,128.53-10.2-3.12-20.36-6.27-30.05-11.2-17.89-38.38-48.94-69.41-87.33-87.28ZM476.58,330.66c-.98-8.32-2.5-16.47-4.58-24.41.79-.01,1.59-.05,2.38-.05,7.31-.1,14.71.03,22.1.02,2.13,9.27,3.62,18.77,4.43,28.46-8.13-1.13-16.24-2.45-24.33-4.02ZM464.67,511.97c-.61-3.2-1.15-6.34-1.61-9.21-.04-.28-.08-.55-.13-.82-5.1-1.66-9.67-5-12.96-9.66l-.17-.24c-.39-.58-.74-1.17-1.08-1.76-1.34,5.16-5.01,8.99-10.14,10.58l-.72.23c-.77.22-1.59.45-2.44.68-20.77,19.01-45.47,33.77-72.75,42.89,3.12-10.2,6.27-20.36,11.2-30.05,11-5.12,21.39-11.33,31.04-18.49-1.29-1.25-2.43-2.63-3.36-4.09-2.5-3.84-3.24-7.96-3.61-11.86-27.55,21.43-62.14,34.21-99.66,34.21-33.1,0-63.92-9.94-89.63-26.99-.31,7.92-5.1,12.23-9.89,13.7-.02.01-.03.01-.05.02,7.63,5.09,15.67,9.63,24.06,13.53,4.91,9.69,8.07,19.85,11.18,30.05-31.78-10.63-60.08-28.89-82.72-52.61-.46.41-.93.81-1.42,1.2-5.74,4.59-12.96,7.8-22.24,9.81-.23,1.28-.47,2.56-.71,3.85-1.25,6.65,4.56,12.48,11.21,11.22,3.2-.61,6.35-1.15,9.21-1.61,2.91-.4,4.94-1.2,7.94-.5,24.02,20.95,52.67,36.73,84.19,45.58.82,2.27,1.67,4.54,2.6,6.78l1.63,4.06c.77,1.48,1.85,2.38,3.42,3.18,1.34.68,3.06.39,4.02-.77.56-.68.89-1.45,1.02-2.41l.2-4.06c.08-1.18.13-2.36.19-3.55,9.97,2.14,20.19,3.6,30.62,4.32.71,5.94,1.4,11.89,2.09,17.85,1.81,16.06,3.68,32.15,6.37,48.12l1.33,8.02c.45,2.23,1.33,4.07,2.81,5.74,1.36,1.51,3.78,1.51,5.13,0,1.48-1.67,2.36-3.51,2.82-5.74l1.33-8.02c.93-5.35,1.65-10.69,2.45-16.04,2.32-16.64,3.98-33.31,5.99-49.93,10.45-.72,20.7-2.19,30.69-4.33.06,1.19.12,2.38.19,3.56l.21,4.06c.12.96.45,1.73,1.02,2.41.96,1.16,2.68,1.45,4.02.77,1.57-.8,2.65-1.7,3.41-3.18,0,0,1.63-4.04,1.63-4.06.94-2.25,1.8-4.52,2.61-6.8,28.68-8.06,54.98-21.87,77.58-40.08,2.43-.86,4.01-.86,5.37-.65,4.2.69,8.75,1.44,13.29,2.3,6.65,1.26,12.49-4.56,11.22-11.21ZM252.8,549.98c0-7.39-.13-14.8-.03-22.11.01-.79.04-1.58.06-2.36,7.93,2.07,16.08,3.59,24.39,4.56,1.58,8.1,2.87,16.2,3.99,24.33-9.68-.81-19.16-2.3-28.41-4.42ZM343.82,549.97c-9.27,2.12-18.76,3.62-28.46,4.43,1.14-8.13,2.45-16.24,4.02-24.33,8.32-.98,16.47-2.5,24.41-4.58,0,.79.05,1.58.06,2.38.09,7.31-.04,14.71-.03,22.1Z"/>
  </g>
  <g>
    <path d="M435.15,491.47c-4.83,1.36-10.04,2.77-15.07,1.97-3.93-.87-8.06-3.6-10.12-6.81-1.48-2.28-1.86-5.07-2.1-7.76-.53-6.54-.39-13.15-.55-19.73-.39-6.33-.52-12.73-.78-19.01-1.09-4.53-3.39,6.74-3.85,7.65-1.21,4.2-2.57,8.41-3.78,12.6-.71,2.52-1.14,5.47-3.04,7.33-1.12,1.14-2.61,1.83-4.1,2.37-6.54,2.57-14.62,3.2-20.67-.85-1.42-1.13-2.5-2.11-3.62-3.56-1.99-2.86-2.15-6.45-3.34-9.7-1.58-5.16-3.37-10.43-5.13-15.46-.21-1.18-1.75-4.55-2.24-1.5-.08,1.2.15,2.7.15,4.05-.18,6.68.16,13.37-.07,20.05-.73,7.25-.97,14.46-.9,21.75.37,8.11-9.13,8.48-15.14,8.42-4.91.14-9.78-1.07-13.14-4.88-3.49-4.31-2.71-10.06-2.15-15.1,1.18-12.94.95-25.9,1.87-38.89,1.02-9.07,1.46-18.1,1.55-27.24.13-4.18.51-8.98,3.99-11.79,5.38-4.28,12.61-5.94,19.34-5.09,7.27.71,15.23,3.71,18.02,11.13,2.99,7.72,5.65,15.72,8.08,23.58.37,1.44,2.11,11.97,4.91,7.73.96-2.23,1.34-4.74,2.17-7.03,2.52-8.97,5.08-17.84,8.5-26.54,2.71-9.41,14.3-9.66,22.51-8.7,6.1,1.13,14.28,3.25,15.08,10.57.55,4.53,1.21,9.03,1.82,13.54.37,3.94.37,7.95,1.17,11.82.47,2.41.62,4.86.64,7.31.07,6.76,1.25,13.46,1.79,20.2.44,8.9,1.02,17.79,2.06,26.65.32,4.04,1.5,9.43-3.62,10.84l-.23.09Z"/>
    <path d="M528.12,485.46c-1.37,5.46-7.09,7.93-12.29,7.65-14.94.13-29.95.1-44.89.01-5.12.2-9.84-2.4-12.81-6.61-5.64-8.5-2.68-19.33-3.43-28.89-.06-16.06-.02-31.81.12-47.82-.28-10.19,6.99-17.92,17.31-17.55,15.36-.09,30.78-.11,46.14-.04,2.44.14,5.44.16,7.11,2.15,3.76,5.91,4.15,15.58-1.34,20.52-1.82,1.48-4.26,1.95-6.57,2.03-4.4.11-8.77.06-13.16.07-5.6.07-11.2-.17-16.79.1-2.6.17-2.14,2.94-2.05,4.8.15,2.38-.67,6.02,2.42,6.35,8.29.35,16.59,0,24.9.13,2.3.05,4.87-.11,6.94.98,3.83,2.56,4.68,10.38,3.78,14.86-1.02,4.78-5.11,9.18-10.22,8.93-8.18.08-16.35-.05-24.52.05-2.23,0-3.37.79-3.27,3.24.04,2.46.1,4.87.04,7.34-.26,3.64,1.33,4.75,4.6,4.61,9.41-.02,18.76-.02,28.16,0,2.1.07,4.62-.19,6.51.79,4.28,3.72,4.51,11,3.37,16.06l-.07.24Z"/>
    <path d="M315.49,447.45c2.54-21.79-7.95-46.58-29.4-54.54-5.08-2.35-10.67-3.22-16.23-3.9-6.36-1.38-13-.52-19.26.88-23.04,4.71-37.59,24.32-38.31,47.41-.96,13.95,2.35,27.92,10.18,39.51,2.46,2.57,4.88,5.47,7.73,7.66,4.01,2.39,7.8,5.46,12.21,6.95,6.37,1.94,12.74,4.12,19.51,3.72,5.34.12,10.56-.77,15.79-1.8,5.56-.44,10.71-3.28,15.47-5.81,2.7-1.84,5.15-4.28,7.7-6.39,9.16-8.48,13.8-21.25,14.6-33.46l.02-.24ZM244.46,445.8c-.37-6.47-.81-13.55,1.93-19.51,2.88-6.65,9.77-11.71,17.16-11.35,15.94.18,20.52,13.6,20.16,27.38-.23,8.54-1.5,18.44-9.39,23.29-15.41,8.88-30.39-2.73-29.85-19.58v-.23Z"/>
    <path d="M199.24,476.03c.09,3.24-.53,6.6-.6,9.96.11,2.33-.36,4.88-2.95,5.58-3.67,1.31-7.65,1.59-11.52,1.64-7.28.56-14.49-2.1-16.68-9.73-1.69-5.65-.24-11.72-1.15-17.43-.27-2.51.28-4.94-.23-7.38-.16-1.84.58-3.66.35-5.54.18-18.47.19-37.21.2-55.71-.2-3.52,2.31-6.04,5.75-6.29,2.93-.36,5.87-.92,8.82-.96,8.89.06,16.66,2.73,17.49,12.67,1.06,24.25.03,48.73.5,72.99v.22Z"/>
    <path d="M153.53,457.05c-.79-5.48-5.08-10.65-9.09-14.32-1.13-1.17-3.65-1.63-3.9-3.38.1-.87.76-1.35,1.3-1.88,4.64-3.79,8.19-9.79,8.95-15.79.55-16.1-9.35-26.02-24.45-29.57-13.38-2.57-27.26-2.79-40.76-.13-7.13,1.04-17.21,2.77-17.67,11.65-.2,24.25-.15,48.51-.05,72.78,0,3.15.59,6.43,2.42,9,8.48,11.15,30.98,9.75,43.78,9.64,23.62-2.28,41.88-10.64,39.47-37.77v-.22ZM99.8,415.18c4.74-.32,9.87-.38,14.42,1.07,1.62.55,3.26,1.07,4.04,2.34,2.91,5.88-.11,11.37-6.93,11.54-3.41.36-6.87.2-10.29.08-.73-.05-1.54-.17-2.02-.71-1.05-1.29-.37-3.89-.43-5.64.04-1.41.04-2.82-.05-4.22-.09-1.82-.7-3.98,1.07-4.42l.2-.04ZM122.17,461.93c-1.18,9.92-14.11,8.28-21.52,8.22-1.51-.2-2.06-1.58-2.08-2.95-.09-3.5.28-6.91-.13-10.36-1.02-4.87,3.45-3.51,6.58-3.71,6.41-.13,18.37-.63,17.15,8.8h0Z"/>
  </g>
</svg>