<?xml version="1.0" encoding="UTF-8"?>
<svg id="uuid-0f067367-e530-42c7-9c81-bb4dbecb8455" data-name="Layer 1" xmlns="http://www.w3.org/2000/svg" viewBox="0 0 764.09 798.11">
  <path id="uuid-72754628-8b12-4679-a30b-37529da452f2" data-name="Cellular Logo" d="M382.01,798.11C171.4,798.11.06,626.77.06,416.16S171.4,34.21,382.01,34.21s381.95,171.34,381.95,381.95-171.34,381.95-381.95,381.95ZM382.01,66.58c-192.76,0-349.58,156.82-349.58,349.58s156.82,349.58,349.58,349.58,349.58-156.82,349.58-349.58S574.77,66.58,382.01,66.58ZM518.63,225.13c-1.01-.04-2.05-.05-3.05-.05h-62.93l-35.44-36.36c-28.21-30.42-68.84-47.87-111.5-47.87s-83.53,17.53-111.71,48.1l-15.98,18.81v.53c-30.51,40.08-90.35,134.82-87.62,258.07.14,76.2,65.35,139.31,145.53,140.84,1,.04,2.03.04,3.02.04h62.93l35.44,36.36c28.21,30.42,68.84,47.87,111.5,47.87s83.52-17.53,111.71-48.1l15.98-18.81v-.53c30.51-40.07,90.35-134.81,87.62-258.06-.13-76.2-65.34-139.3-145.51-140.84ZM515.58,266.97c.5,0,1.02,0,1.51.02l.56.02c57.68,1.02,104.6,45.52,104.6,99.2v.48c.33,14.32-.3,28.21-1.7,41.63-7.4-15.63-17.55-30.11-30.77-42.53l-96.3-98.81h22.1ZM269.26,266.97h165.73l125.12,128.39.71.7c20.07,18.71,31.12,43.58,31.12,70.04,0,54.72-47.85,99.24-106.67,99.24h-165.73l-125.12-128.39-.72-.7c-20.06-18.71-31.11-43.59-31.11-70.04,0-54.72,47.85-99.24,106.67-99.24ZM219.92,224.14v-.99l5.43-6.39c20.26-21.63,49.5-34.02,80.37-34.02s60.61,12.62,80.92,34.62l7.53,7.72h-124.91c-21.72,0-42.23,4.7-60.84,12.7,2.09-2.81,4.36-5.99,6.17-8.29l5.33-5.35ZM238.96,565.34c-.51,0-1.05,0-1.56-.02l-.51-.02c-57.67-1.02-104.6-45.52-104.6-99.21v-.48c-.33-14.32.3-28.21,1.7-41.64,7.4,15.63,17.55,30.12,30.77,42.54l96.3,98.81h-22.1ZM534.62,608.14v1.03l-5.41,6.36h0c-20.26,21.65-49.5,34.04-80.38,34.04s-60.6-12.62-80.92-34.62l-7.53-7.72h124.91c21.73,0,42.23-4.7,60.84-12.7-2.08,2.8-4.35,5.97-6.15,8.27l-5.35,5.33ZM356.64,330.97c-22.24,4.68-41.36,17.86-53.81,35.99l34.77,23.42c6.17-8.91,15.5-15.46,26.39-18.13l-7.35-41.28ZM329.45,416.16c0-2.59.23-5.1.65-7.58l-36.37-24.56c-4,9.94-6.17,20.79-6.17,32.14,0,2.21.08,4.42.27,6.63l43.07,4.76c-.95-3.66-1.45-7.46-1.45-11.39ZM381.36,460.79c-2.17.38-4.42.53-6.7.53-2.44,0-4.84-.19-7.16-.57l-22.89,37.13c9.37,3.47,19.5,5.33,30.05,5.33,18.58,0,35.8-5.83,49.93-15.8l-43.22-26.62ZM433.3,351.88l-25.48,33.7c7.46,8.07,12,18.77,12,30.58,0,7.73-1.94,15-5.37,21.4l35.64,21.94c7.39-12.76,11.61-27.53,11.61-43.34,0-25.44-10.97-48.36-28.41-64.28ZM394.46,456.76l38.69,23.84h.04c2.7-2.51,5.26-5.14,7.62-7.92l-36.52-22.47c-2.97,2.59-6.25,4.8-9.83,6.55ZM342.93,448.26l-51.26-5.67c6.17,19.38,19,35.84,35.76,46.65l21.94-35.64c-2.32-1.6-4.46-3.35-6.44-5.33ZM374.65,329.1c-1.87,0-3.73.08-5.6.19l7.39,41.78c6.55.23,12.76,1.87,18.28,4.65l25.52-33.7c-13.25-8.19-28.87-12.91-45.58-12.91Z"/>
</svg>