<?xml version="1.0" encoding="UTF-8"?>
<svg id="uuid-c8597c84-3aa0-45ba-aae2-6716ca6b39d3" data-name="Layer 1" xmlns="http://www.w3.org/2000/svg" viewBox="0 0 764.09 798.11">
  <defs>
    <style>
      .uuid-c42e7cfe-5591-4685-bfed-4562c173c351 {
        fill: none;
      }
    </style>
  </defs>
  <path id="uuid-4a4a3875-412e-4970-9687-93dfda11d7ff" data-name="Desert Logo" d="M438.05,257.59c0,72.77-58.99,131.76-131.75,131.76s-131.75-58.99-131.75-131.76,58.99-131.75,131.75-131.75,131.75,58.99,131.75,131.75ZM764.06,416.15c0,138.95-74.59,260.79-185.82,327.63v-38.39c32.43-22.06,60.66-49.67,84.06-81.07-20.07-16.39-82.19-64.6-112.79-58.82-36.75,6.93-16.45,38.01-10.32,46.65,6.13,8.65,39,43.26,21.18,71.94-17.86,28.64-28.68,42.05-68.4,63.9,0,0-25.3,17.7-123.3,17.7s-181.7-59.48-182.68-60.17v38.27C74.76,676.94.17,555.1.17,416.15.17,205.55,171.51,34.2,382.11,34.2s381.95,171.34,381.95,381.95ZM451.67,572.5s-115.46-105.11-132.98-119.46c-17.55-14.36-82.03-32.33-61.31,13.98,20.72,46.31,23.84,63.82,22.89,86.71-.95,22.89-52.67,92.96-55.03,96.39-2.36,3.43,1.79,4.57,1.79,4.57l224.65-82.18ZM618.51,334.3c16.03,1.18,26.54,3.24,38.77,9.52,9.24,4.74,52.82,41.28,73.74,59.01-7.09-186.56-160.64-336.25-348.9-336.25S32.53,223.4,32.53,416.15c0,25.84,3.34,50.85,8.69,75.11,44.14-18.49,182.53-75.63,206.45-75.28,28.52.42,51.18,3.24,74.03,15.99.3.15.57.3.84.5.08.04.15.08.27.11l.04.04.19.08.04.04c3.2,1.56,11.84,4.68,21.97-.53,12.91-6.59,257.47-99.05,273.47-97.91ZM673.29,608.51c34.76-52.44,55.66-114.6,57.72-181.59-24.22-20.73-87.14-73.3-102.25-73.12-18.77.23-25.59,6.51-24.03,13.56,1.52,7.08,31.76,25.63,28.71,48.78-3.08,23.19-10.74,32.22-65.08,69.54-54.34,37.32-24.22,60.4-14.47,60.09,9.44-.3,46.15.02,119.4,62.74Z"/>
  <path class="uuid-c42e7cfe-5591-4685-bfed-4562c173c351" d="M382.04,34.34C171.28,34.34,0,205.62,0,416.39s171.28,381.55,382.04,381.55,382.04-171.28,382.04-381.55S592.81,34.34,382.04,34.34ZM382.04,765.85c-192.99,0-349.46-156.96-349.46-349.47S189.05,66.43,382.04,66.43s349.47,156.96,349.47,349.96-156.96,349.47-349.47,349.47Z"/>
</svg>