<?xml version="1.0" encoding="UTF-8"?>
<svg id="uuid-a7efe896-dc1d-4114-96c5-105fb181cd81" data-name="Layer 1" xmlns="http://www.w3.org/2000/svg" viewBox="0 0 566.8 570.66">
  <defs>
    <style>
      .uuid-4299f152-bf41-4a5c-9ce0-65df95690b7f {
        fill: #221e1f;
      }
    </style>
  </defs>
  <path class="uuid-4299f152-bf41-4a5c-9ce0-65df95690b7f" d="M562.54,261.65H48.42c11.87-119.25,112.49-212.36,234.86-212.36,105.61,0,195.01,69.36,225.16,165.01h49.26C526.18,92.16,415.26,1.93,283.28,1.93,134.74,1.93,12.88,116.21.87,261.65c-.12,1.29-.21,2.59-.3,3.88v39.36c.09,1.37.2,2.74.31,4.11h514.12c-1.09,11.05-2.96,21.9-5.54,32.46h-105.58c-21.35,47.02-68.73,79.71-123.74,79.71s-102.38-32.69-123.75-79.71H5.71v14.89c2.86,11.09,6.39,21.93,10.52,32.46,41.34,105.33,143.9,179.91,263.9,179.91,156.51,0,283.4-126.89,283.4-283.4,0-7.98-.35-15.87-.99-23.68ZM280.13,521.37c-93.25,0-173.85-54.07-212.2-132.56h65.66c32.49,45.92,86.01,75.9,146.54,75.9s114.05-29.99,146.54-75.9h65.66c-38.35,78.5-118.96,132.56-212.2,132.56Z"/>
</svg>