<?xml version="1.0" encoding="UTF-8"?>
<svg id="uuid-a5015db9-46a0-4ff3-92ab-9c171ea95274" data-name="Layer 1" xmlns="http://www.w3.org/2000/svg" viewBox="0 0 764.09 798.11">
  <defs>
    <style>
      .uuid-a4b8aadb-7af2-4c23-916f-0592be7139aa {
        fill: none;
      }
    </style>
  </defs>
  <path id="uuid-c3c2d76c-0677-4f20-adfc-528db87415de" data-name="Forest Logo" d="M671.38,612.29h38.39c-66.83,111.2-188.7,185.8-327.62,185.8C171.52,798.09.19,626.76.19,416.13S171.52,34.21,382.15,34.21c138.92,0,260.79,74.6,327.62,185.84h-38.39c-62.95-92.58-169.12-153.47-289.23-153.47-192.77,0-349.59,156.82-349.59,349.56,0,96.23,39.11,183.52,102.21,246.77v-131.08h-66.99l15.65-48.06h75.52v-32.37h-64.97l56.97-174.95,83.17,255.38h-66.99v159.75c55.37,43.34,124.07,70.34,198.83,73.77v-315.47h-131.84l24.41-57.24h67.48v-32.37h-53.66l109.79-257.24,77.15,180.81h-56.32v32.37h70.15l57.05,133.67h-131.84v315.51c71.02-3.28,136.6-27.84,190.41-67.44v-166.11h-66.99l83.17-255.38,56.97,174.95h-64.97v32.37h75.52l15.65,48.06h-66.99v139.19c18.81-17.59,35.68-37.32,50.27-58.72Z"/>
  <path class="uuid-a4b8aadb-7af2-4c23-916f-0592be7139aa" d="M382.04,34.34C171.28,34.34,0,205.62,0,416.39s171.28,381.55,382.04,381.55,382.04-171.28,382.04-381.55S592.81,34.34,382.04,34.34ZM382.04,765.85c-192.99,0-349.46-156.96-349.46-349.47S189.05,66.43,382.04,66.43s349.47,156.96,349.47,349.96-156.96,349.47-349.47,349.47Z"/>
</svg>