<?xml version="1.0" encoding="UTF-8"?>
<svg id="uuid-d2f784b2-4a52-4ed0-8e73-8b4420328283" data-name="Layer 1" xmlns="http://www.w3.org/2000/svg" viewBox="0 0 764.09 798.11">
  <defs>
    <style>
      .uuid-c0eb2483-bd15-4d0f-b9f2-4cb02d539d17 {
        fill: none;
      }
    </style>
  </defs>
  <path id="uuid-35377710-5ccf-45a4-91df-676c8d3e6cf8" data-name="Grassland Logo" d="M382.13,34.22C171.5,34.22.17,205.55.17,416.14s171.33,381.96,381.96,381.96c32.1,0,63.29-4,93.11-11.5l-27.19-27.15c-16.93,3.29-34.37,4.93-52.06,5.63v-166.53l47.18-49.62,26.66-28.07V196.86l-26.66,28.03-61.05,64.21-61.04-64.21-26.66-28.03v324l26.66,28.07,47.18,49.62v166.48c-56.96-2.25-110.45-17.96-157.29-44.39l31.78-33.43,26.66-28.07v-324l-26.66,28.03-61.05,64.21-61.05-64.21-26.66-28.03v278.57c-38.7-56.26-61.47-124.28-61.47-197.58,0-192.74,156.82-349.56,349.59-349.56s349.55,156.82,349.55,349.56c0,22.54-2.13,44.55-6.28,65.92l27.19,27.19c7.47-29.82,11.46-61.01,11.46-93.11,0-210.59-171.33-381.93-381.93-381.93ZM395.99,313.24l47.18-49.62v52.1l-47.18,49.66v-52.13ZM395.99,404.03l47.18-49.62v56.44l-47.18,49.66v-56.48ZM395.99,499.16l47.18-49.62v60.67l-47.18,49.66v-60.7ZM321.08,263.62l47.18,49.62v52.13l-47.18-49.66v-52.1ZM321.08,354.41l47.18,49.62v56.48l-47.18-49.66v-56.44ZM321.08,510.2v-60.67l47.18,49.62v60.7l-47.18-49.66ZM195.57,451.53l47.18-49.62v52.1l-47.18,49.66v-52.13ZM195.57,542.32l47.18-49.62v56.44l-47.18,49.66v-56.48ZM195.57,637.45l47.18-49.62v60.66l-47.18,49.66v-60.7ZM120.67,401.91l47.18,49.62v52.13l-47.18-49.66v-52.1ZM120.67,492.7l47.18,49.62v56.48l-47.18-49.66v-56.44ZM120.67,587.83l47.18,49.62v54.32c-17.08-13.31-32.84-28.16-47.18-44.36v-59.58ZM582.18,421.72l-61.05-64.21-26.66-28.03v324l26.66,28.07,47.18,49.62h27.73l47.18-49.62,26.66-28.07v-324l-26.66,28.03-61.05,64.21ZM568.32,692.49l-47.18-49.66v-60.66l47.18,49.62v60.7ZM568.32,593.13l-47.18-49.66v-56.44l47.18,49.62v56.48ZM568.32,498l-47.18-49.66v-52.1l47.18,49.62v52.13ZM643.23,642.83l-47.18,49.66v-60.7l47.18-49.62v60.66ZM643.23,543.47l-47.18,49.66v-56.48l47.18-49.62v56.44ZM643.23,448.34l-47.18,49.66v-52.13l47.18-49.62v52.1Z"/>
  <path class="uuid-c0eb2483-bd15-4d0f-b9f2-4cb02d539d17" d="M382.04,34.34C171.28,34.34,0,205.62,0,416.39s171.28,381.55,382.04,381.55,382.04-171.28,382.04-381.55S592.81,34.34,382.04,34.34ZM382.04,765.85c-192.99,0-349.46-156.96-349.46-349.47S189.05,66.43,382.04,66.43s349.47,156.96,349.47,349.96-156.96,349.47-349.47,349.47Z"/>
</svg>