<?xml version="1.0" encoding="UTF-8"?>
<svg id="uuid-05b06334-18ec-40e5-890c-dc0dde3e1c30" data-name="Layer 1" xmlns="http://www.w3.org/2000/svg" viewBox="0 0 764.09 798.11">
  <defs>
    <style>
      .uuid-09581940-3dd5-4a22-aba9-fcfbcd4b8c12 {
        fill: none;
      }
    </style>
  </defs>
  <path id="uuid-ed9a8bf6-1d47-4d1d-aecd-6a47d2f0cb12" data-name="Jungle Logo" d="M382.1,34.18c-138.96,0-260.82,74.56-327.62,185.8h38.39c62.95-92.54,169.12-153.43,289.23-153.43,192.73,0,349.56,156.82,349.56,349.56s-156.82,349.59-349.56,349.59c-120.15,0-226.32-60.89-289.23-153.47h-38.42c66.83,111.28,188.7,185.84,327.66,185.84,210.59,0,381.92-171.33,381.92-381.96S592.7,34.18,382.1,34.18ZM504.55,256.07c-33.75,3.3-66.19,17.54-61.8,22.33,1.6,1.75,3.9,2.75,6.17,3.32,4.01,1.01,8.22.36,12.01-1.3,26.61-11.68,50-8.8,50-8.8,76.15,3.19,96.89,29.5,96.89,29.5,0,0-1.59,29.9-2.79,40.27-1.2,10.37,3.59,81.34.4,86.92-3.19,5.58-18.55,8.34-49.84-22.33-31.29-30.67-63.79-28.71-80.14-25.92-16.35,2.79-.86,11.16-.86,11.16,84.94,4.08,131.08,64.52,131.08,64.52-31.85,44.92-25.32,99.23-25.32,99.23,0,0-21.64-25.32-54.31-33.48-32.67-8.17-18.78,10.62-18.78,10.62l56.35,42.06c-24.5,40.02-41.65,132.3-41.65,132.3-35.12-87.79-129.04-113.93-129.04-113.93,51.86-70.64,49.41-77.18,49.41-77.18-21.23,2.86-44.1,27.77-44.1,27.77-27.36,45.73-25.73,41.04-25.73,41.04-74.73-41.45-58.8-35.12-58.8-35.12-23.28-31.03,43.8-78.81,43.8-78.81,0,0,50.56-39.48,33.94-49.18-16.62-9.7-14.54-6.23-33.25,6.93-18.7,13.16-66.49,98.35-66.49,98.35,0,0-120.52-76.88-114.97-117.74,5.54-40.86,21.47-47.79,89.35-58.18,67.88-10.39,70.65-18.01,70.65-18.01,0,0-3.46-13.16-38.79-19.39-35.32-6.23-135.75,66.49-135.75,66.49,0,0-29.78-118.44,36.71-154.45,66.49-36.02,168.31,31.81,168.31,31.81,10.01-9.64,37.21-80.35,37.21-80.35,14.54-29.52,37.87-52.54,75.34-50.63,99.91,5.08,130.45,146.96,130.45,146.96-23.53-20.7-105.65-16.78-105.65-16.78Z"/>
  <path class="uuid-09581940-3dd5-4a22-aba9-fcfbcd4b8c12" d="M382.04,34.34C171.28,34.34,0,205.62,0,416.39s171.28,381.55,382.04,381.55,382.04-171.28,382.04-381.55S592.81,34.34,382.04,34.34ZM382.04,765.85c-192.99,0-349.46-156.96-349.46-349.47S189.05,66.43,382.04,66.43s349.47,156.96,349.47,349.96-156.96,349.47-349.47,349.47Z"/>
</svg>