<?xml version="1.0" encoding="UTF-8"?>
<svg id="uuid-79a59781-3bbd-4bd7-8378-2ec187b52af8" data-name="Layer 1" xmlns="http://www.w3.org/2000/svg" viewBox="0 0 764.09 798.11">
  <defs>
    <style>
      .uuid-b0ccaea3-e674-4064-b190-c44c47ae0664 {
        fill: none;
      }
    </style>
  </defs>
  <path id="uuid-e52a36b2-48a5-4a3f-9447-67b6b2c9bcc9" data-name="Marine Logo" d="M625.2,267.73s0,.04,0,.04c1.86,3.31,3.54,6.7,5.14,10.17.53,1.18,1.03,2.32,1.56,3.5.99,2.28,1.94,4.61,2.86,6.97,3.62,9.48,6.47,19.23,8.72,29.17,2.09,9.25,2.9,18.81,3.96,28.26.61,5.71.95,11.46.72,17.18-.69,15.77-3.81,31.04-10.51,45.43-.61,1.37-1.22,2.74-1.79,4.15-.57,1.37-1.14,2.78-1.68,4.15-.19.53-.46,1.07-.72,1.49v.04c-.92,1.33-2.21,2.13-4.08,2.09-.95,0-1.75-.19-2.44-.57-.19-.15-.42-.27-.61-.45-.76-.65-1.3-1.6-1.64-2.71-1.22-4.23-2.36-8.45-3.54-12.68-.88-3.16-1.83-6.32-2.86-9.41-.34-1.03-.73-2.05-1.11-3.08-3.08-8.26-6.51-16.34-10.63-24.03-5.33-9.82-11.8-18.93-20.22-26.85-.91-.84-1.83-1.68-2.78-2.44-3.35-2.71-7-4.91-10.89-6.51-1.03-.49-2.09-.88-3.16-1.22-.19-.08-.38-.15-.57-.19-.95-.34-1.94-.61-2.93-.8-.15-.08-.3-.11-.42-.11-.91-.27-1.83-.42-2.74-.57-.46-.11-.91-.15-1.37-.19-.38-.11-.8-.15-1.18-.19-3.58-.38-7.01.11-10.17,1.37-.84.3-1.64.69-2.48,1.11-1.9.95-3.73,2.17-5.41,3.62-1.6,1.37-3.08,2.78-4.46,4.23-9.63,10.13-14.58,22.77-17.1,36.75-.8,4.61-1.18,9.18-1.18,13.71,0,3.08.19,6.17.53,9.25.34,3.05.84,6.09,1.49,9.1,1.33,6.06,3.2,12,5.56,17.82,5.14,12.76,12.11,24.79,18.4,37.09,2.93,5.83,5.94,11.58,9.25,17.18,2.55,4.34,5.3,8.53,8.07,12.83.95,1.45,1.9,2.86,2.82,4.3h-.04c-.53.19-1.1.38-1.71.61-1.22.38-2.59.84-3.96,1.29-.73.19-1.41.38-2.13.57-.27.08-.57.11-.84.19-.27.04-.53.08-.8.08,0,0-.23.04-.68.04-.08,0-.19,0-.3.04-12.57.95-141.01,6.74-173.08-139.21h0s0-.01,0-.02c-.91-15.77.76-30.96,9.14-44.4,4.11-6.63,9.56-12.45,14.81-18.32,5.48-6.13,12.38-5.37,19.34-3.92,0,.04.04.04.08.04.45.19.91.42,1.37.65.08.04.15.08.23.11.11.04.19.11.3.19.11.04.19.08.3.15.34.49.76,1.29,1.33,2.32,4.08,7.39,14.09,27.91,16.76,54.07v.04c1.18,11.54.95,24.18-1.86,37.28,0,0,.34,19.42,14.01,5.71,13.71-13.67,59.86-69.04,43.95-150.23,0,0-2.52-12.07-10.44-29.86,0,0,5.56-2.9,12.95-5.75.04,0,.08-.04.11-.04,5.13-2.01,10.91-3.6,16.49-4.62.72-.13,1.4-.51,2.13-.6,1.26-.15,2.48-.27,3.69-.3.19,0,.42-.04.61-.04.59-.03,1.18-.05,1.75-.06.14,0,.32-.06.45-.05l.04.04c.08-.04.15-.04.19,0,3.12-.11,6.21,0,9.22.3.87.08,1.71.15,2.59.27.84.11,1.71.23,2.55.38.8.11,1.56.27,2.36.42,1.75.34,3.5.76,5.22,1.22.8.23,1.64.46,2.47.72.76.23,1.56.46,2.32.73,2.17.72,4.27,1.52,6.4,2.44.72.3,1.41.61,2.13.91,1.6.72,3.2,1.49,4.8,2.28,1.45.73,2.9,1.49,4.34,2.32.19.08.38.19.61.31,1.49.87,2.93,1.75,4.42,2.66,1.52.95,3.05,1.94,4.57,2.97h.04c3.39,2.29,6.59,4.72,9.63,7.31,1.37,1.18,2.66,2.33,3.96,3.54.88.8,1.71,1.6,2.52,2.4,8.15,8.07,15.12,17.29,21.32,27.23,1.37,2.17,2.67,4.38,3.89,6.59ZM126.32,497.9c-.23-1.86-1.14-4-.53-5.6,5.25-14.05,10.39-28.18,16.37-41.89,6.66-15.23,13.71-30.31,21.44-45.05,10.32-19.72,20.87-39.38,32.29-58.45,15.46-25.93,31.38-51.56,47.98-76.77,8.99-13.67,19.5-26.39,29.82-39.11,6.13-7.58,12.95-14.66,19.92-21.48,14.32-14.01,30.01-26.31,48.52-34.39,11.73-5.1,23.88-8.91,36.6-10.44,10.59-1.26,21.21-2.78,31.83-2.82,16.49-.04,31.3,5.83,44.56,15.61,14.39,10.62,24.75,24.41,32.22,40.48,4.84,10.51,8.49,21.48,9.75,33.02,1.07,9.63,2.17,19.34,2.13,29.02-.08,12.23-2.32,24.22-5.52,36.03-6.17,22.93-18.09,42.84-31.8,61.88-2.13,2.93-3.85,6.13-6.21,8.84-.99,1.14-3.12,1.68-4.72,1.68-.53,0-1.68-2.4-1.6-3.66.53-7.84,1.79-15.69,1.98-23.53.23-9.03-.04-18.09-.65-27.12-.84-11.5-4.07-22.5-9.63-32.64-5.33-9.67-13.56-15.38-24.98-15.19-6.7.11-12.15,3.65-17.06,7.84-13.71,11.73-21.67,26.81-24.83,44.44-1.33,7.35-.84,14.74.61,22.05,1.75,8.72,2.93,17.59,5.29,26.13,4.91,17.63,13.17,33.74,23.34,48.97,8.84,13.21,19.88,24.03,32.79,33.09,15.96,11.16,33.4,19.69,50.8,28.26,10.51,5.21,21.33,9.75,33.02,10.82,8.68.8,17.52.68,26.2.08,7.04-.49,14.01-2.17,20.94-3.62,2.78-.57,5.37-2.25,8.15-2.78,2.13-.42,4.68-.27,6.7.5,2.86,1.1,5.33,3.2,8.15,4.53,2.63,1.22,3.27,3.39,2.63,5.64-.42,1.49-1.9,3.27-3.31,3.73-11.54,3.66-23.04,7.5-34.81,10.28-6.89,1.64-14.24,1.49-18.47,1.87-22.39-.23-41.28-3.85-58.42-13.02-13.52-7.24-25.86-16.61-38.77-24.98-7.27-4.72-14.43-9.6-21.97-13.86-17.94-10.13-36.79-18.24-56.51-24.29-15.42-4.72-30.96-8.8-46.96-10.93-12.23-1.64-24.49-2.67-36.67-4.53-10.7-1.64-21.02.31-31.27,2.52-19.23,4.11-37.44,11.27-55.18,19.65-13.86,6.55-27.3,13.79-39.6,22.89-6.4,4.76-12.49,9.94-18.93,14.62-1.49,1.11-3.73,1.18-5.64,1.71ZM157.7,449.43c2.48-1.56,4.15-2.63,5.83-3.7,12.8-7.92,26.01-14.96,40.33-19.8,17.86-6.02,36.14-10.55,54.99-11.2,13.98-.49,28.07.19,42.04,1.49,9.6.91,19.19,3.16,28.52,5.79,16.6,4.68,33.02,10.13,49.51,15.2,1.98.65,4,1.14,6.78,1.94-2.48-3.96-4.42-7.08-6.36-10.25-6.51-10.43-11.69-21.59-15.46-33.28-4.08-12.64-6.44-25.59-7.66-38.88-1.07-11.92.23-23.38,3.08-34.84,3.27-12.98,8.87-24.87,17.59-35.15,11.77-13.98,25.55-23.65,45.09-21.9,13.14,1.22,23.42,7.58,31.46,17.44,7.84,9.63,11.2,21.36,13.48,33.4.88,4.72,1.49,9.48,2.25,14.2.38.04.76.04,1.14.08,2.82-10.78,6.09-21.44,8.3-32.33,1.71-8.49,2.82-17.25,2.9-25.9.04-7.42-1.41-14.89-2.82-22.24-3.62-19.12-11.42-36.06-26.47-49.2-12.87-11.16-27.92-16.34-44.63-17.14-6.17-.27-12.45-.04-18.62.76-7.58.99-15.23,2.25-22.62,4.31-18.2,5.03-34.24,14.28-49.05,26.08-13.1,10.44-25.21,21.94-35.45,35.11-12.04,15.46-23.57,31.38-34.54,47.64-13.33,19.73-26.2,39.76-38.58,60.09-11.23,18.47-21.59,37.51-32.29,56.32-3.2,5.67-6.36,11.38-9.37,17.14-3.08,5.94-5.98,12-9.37,18.81ZM128.42,588.38c10.32-3.96,20.64-7.96,30.62-12.61,15.5-7.24,31.08-14.09,47.6-18.55,11.69-3.12,23.5-5.52,35.64-5.64,5.68-.08,11.39-.34,17.02.08,6.74.45,13.59.87,20.14,2.4,23.04,5.37,45.05,13.86,65.5,25.74,21.94,12.72,43.49,26.09,64.89,39.72,17.78,11.27,35.22,23,54.5,31.76,20.87,9.48,42.61,14.39,65.46,14.58,15.8.34,31-2.51,45.77-7.96,20.98-7.77,38.04-20.6,50.76-39.07,6.89-10.02,11.42-21.17,14.39-32.87,2.02-7.92,3.16-16.03,4.46-24.11.19-1.22-.69-3.65-1.37-3.77-1.56-.27-3.69.08-4.84,1.07-10.93,9.44-21.56,19.31-32.6,28.64-6.13,5.18-12.57,10.28-19.53,14.24-16.95,9.6-35.8,12.61-54.91,13.48-6.66.3-13.56-.76-20.15-2.21-20.45-4.42-39.34-12.68-57.28-23.57-27.23-16.56-54.61-32.9-82.41-48.48-21.52-12.11-43.99-22.35-67.75-29.36-17.52-5.14-35.26-8.42-53.66-6.02-8.38,1.07-16.87,1.56-25.17,3.01-22.24,3.96-43.18,11.35-61.62,24.87-9.44,6.93-18.2,14.66-25.02,24.22-5.48,7.77-10.44,15.88-15.73,23.76-1.33,2.02-3.08,4.3-.95,6.06,1.33,1.14,4.42,1.26,6.21.57ZM129.48,530.46c6.13-2.48,12.07-5.33,18.2-7.84,13.75-5.64,27.46-11.54,41.39-16.68,18.96-7.01,38.31-12.91,58.72-14.01,9.07-.46,18.43-1.26,27.27.27,15.69,2.71,31.23,6.66,46.57,10.89,16.68,4.57,33.13,10.09,48.59,17.9,12.15,6.13,24.03,12.8,35.76,19.65,16.3,9.48,32.37,19.46,48.56,29.13,13.44,8.03,27.3,15.27,42.08,20.6,12.49,4.49,25.25,7.96,38.69,8.57,2.02-.3,4.04-.8,6.06-.88,9.44-.46,18.2-3.39,26.66-7.2,12.49-5.6,24.14-12.72,34.31-21.9,8.34-7.58,16.83-15.24,23.76-24.03,9.33-11.77,13.79-25.82,13.98-41.01.04-3.5-2.05-4.87-5.25-3.35-2.36,1.11-4.72,2.4-6.86,3.92-12.79,9.03-25.59,18.01-38.27,27.19-12.07,8.76-25.48,14.2-40.26,15.31-8.99.68-18.09-.08-27.11-.57-15.77-.91-30.39-6.21-44.21-13.37-11.85-6.13-23.16-13.29-34.62-20.11-20.07-11.88-39.87-24.22-60.17-35.72-17.9-10.2-36.82-18.39-56.97-23.08-11.46-2.67-23.08-5.18-34.77-6.21-9.48-.8-19.19.57-28.79,1.26-13.98.99-27.49,4.49-40.82,8.64-14.93,4.72-29.29,10.93-42.84,18.77-17.59,10.13-34.12,21.71-47.11,37.59-2.93,3.54-4.91,7.88-7.05,12.04-.49.99-.19,3.12.57,3.81.8.72,2.78.88,3.92.42ZM446.52,654.76c-17.18-6.7-33.86-14.47-49.32-24.56-11.57-7.58-22.81-15.69-34.31-23.35-17.18-11.35-34.81-21.94-53.69-30.27-13.94-6.13-28.26-11.12-43.45-12.3-13.48-1.07-27-.15-40.22,3.08-18.55,4.53-35.95,11.96-52.67,21.13-20.98,11.5-35.53,29.06-46.23,50.08-.65,1.29.08,3.27.15,4.95,1.75-.19,3.73.08,5.18-.69,3.31-1.68,6.25-4.07,9.56-5.79,13.71-7.08,28.41-11.65,43.34-15.35,12.91-3.2,25.97-6.06,39.11-8,8.91-1.3,18.09-1.18,27.08-.8,6.21.27,12.79.95,18.35,3.39,13.52,5.9,26.73,12.57,39.68,19.69,14.58,8,29.32,15.5,45.05,20.98,24.83,8.64,50.46,12.79,76.89,13.41,9.03-1.03,18.05-1.94,27.04-3.2,1.37-.19,3.01-1.75,3.62-3.08.95-2.06-.69-3.31-2.51-4.08-4.23-1.75-8.42-3.58-12.64-5.25ZM382.13,34.22c-32.1,0-63.29,4-93.11,11.46l27.19,27.19c21.37-4.15,43.38-6.28,65.92-6.28,192.73,0,349.55,156.82,349.55,349.56s-156.82,349.59-349.55,349.59S32.54,608.91,32.54,416.14c0-22.55,2.13-44.6,6.28-65.96l-27.15-27.15C4.17,352.85.17,384.04.17,416.14c0,210.63,171.33,381.96,381.96,381.96s381.93-171.33,381.93-381.96S592.73,34.22,382.13,34.22Z"/>
  <path class="uuid-b0ccaea3-e674-4064-b190-c44c47ae0664" d="M382.04,34.34C171.28,34.34,0,205.62,0,416.39s171.28,381.55,382.04,381.55,382.04-171.28,382.04-381.55S592.81,34.34,382.04,34.34ZM382.04,765.85c-192.99,0-349.46-156.96-349.46-349.47S189.05,66.43,382.04,66.43s349.47,156.96,349.47,349.96-156.96,349.47-349.47,349.47Z"/>
</svg>