<?xml version="1.0" encoding="UTF-8"?>
<svg id="uuid-36b0189c-e01b-4b60-b80f-e60b3b40e491" data-name="Layer 1" xmlns="http://www.w3.org/2000/svg" viewBox="0 0 764.09 798.11">
  <defs>
    <style>
      .uuid-4ff0dc50-bc7f-464b-959a-b62575202d04 {
        fill: none;
      }
    </style>
  </defs>
  <path id="uuid-b249c897-3f32-4f51-9dbd-02255f6b0363" data-name="Metropolis Logo" d="M225.36,356.05h-28.45v-35.42h28.45v35.42ZM225.36,379.22h-28.45v35.42h28.45v-35.42ZM270.74,320.63h-28.45v35.42h28.45v-35.42ZM119.26,494.31h-28.45v35.42h28.45v-35.42ZM119.26,552.9h-28.45v35.42h28.45v-35.42ZM164.64,494.31h-28.45v35.42h28.45v-35.42ZM164.64,552.9h-28.45v35.42h28.45v-35.42ZM164.64,611.48h-28.45v35.42h28.45v-35.42ZM641.16,529.73h28.45s0-35.42,0-35.42h-28.45s0,35.42,0,35.42ZM641.16,588.31h28.45s0-35.42,0-35.42h-28.45s0,35.42,0,35.42ZM595.78,529.73h28.45s0-35.42,0-35.42h-28.45s0,35.42,0,35.42ZM595.78,588.31h28.45s0-35.42,0-35.42h-28.45s0,35.42,0,35.42ZM595.78,646.9h28.45s0-35.42,0-35.42h-28.45s0,35.42,0,35.42ZM588.62,94.6s0,0,0,0c0,0,0,0,0,0h0ZM703.43,622.41c-113.87,177.16-350.62,228.68-527.82,114.82C-1.55,623.37-53.07,386.61,60.79,209.41,135.93,92.54,264.53,30.35,394.28,34.27l-12.15,18.85v57.66l19.46,21.17V0h30.35v165.01l81.11,88.27v486.61c9.37-3.77,18.58-7.96,27.65-12.57v-286.03h189.99c2.74-38.46-.91-77-10.62-114.02-10.93,6.93-17.9,19.19-17.9,32.48h-38.08c0-21.21-17.25-38.46-38.5-38.46s-38.46,17.25-38.46,38.46h-38.08c0-42.19,34.35-76.55,76.55-76.55,22.93,0,43.53,10.13,57.5,26.12,6.89-7.88,15.39-14.36,25.1-18.89-1.45-3.96-3.05-7.92-4.72-11.84l20.75-32.29c57.47,116.38,54.34,259.19-20.79,376.1ZM189.74,475.34H37.83c15.88,91.97,68.24,177.31,151.91,232.45v-232.45ZM242.71,407.36l57.12-37.24v-77.27h-133.4v152.18h53.66v280.66c7.46,3.88,15,7.5,22.62,10.82v-329.14ZM273.06,424.39v69.16l62.53-35.95-62.53-33.21ZM273.06,552.84v63.25l60.97-31.23-60.97-32.03ZM351.82,724.66l-78.75-40.6v64.02c25.82,8.45,52.25,13.75,78.75,15.99v-39.42ZM351.82,609.85l-78.56,40.25,78.56,40.44v-80.7ZM351.82,483.26l-69.73,40.06,69.73,36.6v-76.66ZM351.82,372.52l-50.19,32.71,50.19,26.62v-59.33ZM351.82,67.82c-104.08,9.14-203.02,64.59-263.79,159.11-43.22,67.29-60.4,143.95-54.11,218.1h102.17v-182.53h194.1v87.89l21.63-14.09V67.82ZM382.13,316.5l92.46-60.25-92.46-100.65v160.9ZM382.13,441.18l75.86-41.97-75.86-42.12v84.08ZM382.13,570.89l83.97-45.36-83.97-45.74v91.09ZM382.13,690.62l78.41-39.91-78.41-40.71v80.62ZM425.51,762.63l-43.38-22.35v25.1c14.51-.04,29.02-.95,43.38-2.74ZM482.74,673.44l-82.52,42.04,73.16,37.7c3.12-.84,6.25-1.75,9.37-2.67v-77.08ZM482.74,551.05l-72.7,39.26,72.7,37.74v-77ZM482.74,420.2l-72.77,40.25,72.77,39.61v-79.86ZM482.74,287.21l-75.44,49.16,75.44,41.89v-91.05ZM727.15,471.65h-156.1v238.36c41.01-26.28,77.15-61.54,105.14-105.11,26.81-41.74,43.6-87.09,50.95-133.25Z"/>
  <path class="uuid-4ff0dc50-bc7f-464b-959a-b62575202d04" d="M382.04,34.34C171.28,34.34,0,205.62,0,416.39s171.28,381.55,382.04,381.55,382.04-171.28,382.04-381.55S592.81,34.34,382.04,34.34ZM382.04,765.85c-192.99,0-349.46-156.96-349.46-349.47S189.05,66.43,382.04,66.43s349.47,156.96,349.47,349.96-156.96,349.47-349.47,349.47Z"/>
</svg>