<?xml version="1.0" encoding="UTF-8"?>
<svg id="uuid-9c45ba61-68d2-4e7c-b7bc-adc9915b58cb" data-name="Layer 1" xmlns="http://www.w3.org/2000/svg" viewBox="0 0 764.09 798.11">
  <defs>
    <style>
      .uuid-a4aa79eb-a63e-4b7a-a54a-01fdd58c2cd4 {
        fill: none;
      }
    </style>
  </defs>
  <path id="uuid-048c4406-6629-424d-ae4b-7271fbbc8628" data-name="Swamp Logo" d="M648.02,329.68c-3.31-5.45-8.8-6.36-14.78-6.74-11.54-.69-22.96-1.75-34.58-.76-12.22.99-24.18,2.63-35.95,6.02-16.38,4.72-31,12.53-43.57,24.03-11.04,10.09-19.42,22.16-25.78,35.68-.46.91-1.07,1.79-1.6,2.7-.61-1.79-.53-3.28-.38-4.68.65-5.29,1.9-10.55,1.83-15.84-.11-12.8-.42-25.63-1.49-38.39-.8-9.44-2.4-18.89-4.57-28.14-5.9-25.29-14.43-49.77-25.55-73.27-8.42-17.9-17.78-35.34-29.09-51.56-11.73-16.76-23.88-33.25-36.37-49.47-3.85-5.03-9.56-8.07-16.68-5.94-4.46,1.37-7.81,3.92-10.55,7.65-9.29,12.61-19.12,24.83-28.07,37.7-13.98,20.07-26.01,41.28-36.37,63.48-8,17.14-15.08,34.54-20.79,52.55-6.44,20.3-10.85,41.01-11.92,62.23-.72,14.43.53,28.9.88,42.88-.23-.34-1.03-1.49-1.83-2.63-6.97-9.52-13.48-19.42-20.98-28.52-8.99-10.85-20.83-18.16-33.55-24.22-16.41-7.81-33.74-11.54-51.72-11.96-12.3-.27-24.6.72-36.9,1.37-6.05.3-10.51,3.5-12.99,8.99-2.51,5.6-1.87,11.12,1.79,15.99,6.44,8.57,13.79,16.57,19.54,25.59,10.05,15.8,19.31,32.14,28.75,48.36,11.54,19.84,22.7,39.95,34.54,59.64,4.91,8.23,10.51,16.26,16.95,23.34,6.32,6.97,14.13,12.64,21.52,19.08-.11.08-.84.72-1.64,1.29-12.76,9.18-22.93,20.87-29.21,35.07-7.96,17.97-14.13,36.71-21.71,54.88-4.95,11.96-10.93,23.5-16.68,35.15-2.59,5.22-6.51,9.9-8.53,15.35-4.27,11.62,4.72,22.43,16.07,21.06,12.64-1.56,25.13-4.23,37.66-6.47,21.82-3.88,42.61-10.66,61.96-21.59,15.73-8.84,30.08-19.38,41.7-33.4,1.26-1.56,2.89-2.78,4.49-4.34,6.02,17.44,13.4,33.7,23.04,48.71,7.46,11.61,16.07,22.58,24.98,33.21,6.74,8,16.79,7.84,23.73-.11,6.51-7.39,12.53-15.35,17.82-23.69,7.12-11.23,13.6-22.93,19.84-34.69,3.85-7.31,6.74-15.12,10.13-22.89,6.02,5.22,12.03,10.47,18.09,15.73,9.48,8.26,20.03,15,31.08,20.98,11.96,6.51,24.52,11.81,37.66,15.31,13.06,3.5,26.39,6.21,39.64,8.91,5.9,1.22,12.07,1.14,17.94,2.48,4.15.95,7.77.15,11.04-1.75,8.07-4.8,9.86-13.25,5.94-21.06-4-7.92-9.41-15.23-12.87-23.38-9.94-23.38-19.12-47.15-28.87-70.64-4.91-11.84-11.12-23.04-20.34-32.26-4.99-4.99-10.21-9.67-15.31-14.47,16.57-7.84,28.07-21.21,37.28-36.75,9.48-16.03,18.62-32.29,27.95-48.44,9.52-16.45,19.04-32.9,28.75-49.24,7.69-12.99,16.15-25.4,26.12-36.79,6.55-7.46,7.12-13.71,2.48-21.33ZM296.75,602.66c-14.55,18.17-33.51,29.97-54.99,37.89-10.74,4-21.94,6.82-32.98,10.13-.84.23-1.79.15-3.08.27,2.51-6.89,4.76-13.33,7.16-19.69,5.79-15.16,11.65-30.24,17.4-45.36,4.8-12.8,11.58-24.33,22.09-33.13,7.85-6.55,16.91-11.01,27.23-12.38,6.4-.84,12.76-1.64,19.04.72,7.73,2.89,12.11,9.1,12.64,16.87,1.14,16.72-4.04,31.57-14.51,44.67ZM304.86,502.08c-9.1.19-18.24.34-27.34,0-16.57-.61-30.62-6.66-39.91-20.95-11.04-16.95-21.94-33.97-32.33-51.26-12.8-21.33-25.1-42.99-37.55-64.55-2.06-3.5-3.92-7.12-6.09-11.16,15.99,1.26,31.27,3.92,45.58,10.82,13.9,6.66,24.03,17.02,31.68,30.31,11.65,20.34,21.44,41.81,35.53,60.7,5.75,7.73,11.69,15.42,18.28,22.47,6.66,7.16,14.24,13.48,21.4,20.18.53.46.95,1.03,1.98,2.17-4.19.5-7.69,1.18-11.23,1.26ZM410.46,617.05c-6.85,17.94-16.49,34.43-26.96,50.46-.34.53-.57,1.1-1.14,2.21-3.81-5.64-7.27-10.21-10.21-15.12-8.87-14.78-17.25-29.86-21.74-46.61-2.25-8.42-3.81-17.1-5.1-25.74-2.02-12.99-1.41-25.9,3.62-38.23,4.49-11.01,10.24-21.06,21.71-26.5,10.55-5.03,20.45-3.77,29.55,3.16,10.17,7.77,15.04,18.96,17.86,30.92,1.56,6.66,2.48,13.71,2.21,20.53-.61,15.46-4.27,30.47-9.79,44.94ZM437.27,441.49c-9.14,12.8-20.37,22.93-35.68,27.53-5.26,1.56-10.82,2.21-16.3,2.86-16.41,1.94-30.66-3.77-43.03-13.86-8.76-7.16-16.11-15.84-21.67-25.86-8.11-14.55-13.25-30.16-15.08-46.69-1.26-11.62-2.44-23.31-2.09-34.92.53-16.98,3.85-33.66,8.49-50.08,7.2-25.36,17.44-49.43,29.74-72.62,9.79-18.39,20.79-36.06,33.28-52.78,2.82-3.73,5.6-7.5,9.03-12.07,12.07,19.42,23.65,37.82,35,56.36,13.06,21.33,23.34,43.95,31,67.75,4.72,14.78,8.68,29.78,10.21,45.24,1.14,11.61,2.55,23.31,2.06,34.92-1.14,27-9.06,51.98-24.94,74.22ZM525.89,568.8c10.28,18.28,16.91,38.12,24.22,57.66,3.01,7.96,5.98,15.88,9.44,25.06-6.06-1.56-11.16-2.78-16.18-4.19-12.99-3.62-25.63-8.11-37.55-14.47-10.13-5.41-19.5-11.88-28.03-19.73-10.21-9.33-17.78-20.18-21.52-33.51-2.51-9.03-3.66-18.32-.11-27.42,3.31-8.45,10.24-12.87,18.74-13.06,22.81-.53,39.8,9.83,50.99,29.67ZM570.9,409.62c-8.3,14.36-16.22,28.94-24.94,43.07-7.16,11.65-14.4,23.5-23.15,33.93-8,9.48-19.54,14.43-32.1,15.42-9.98.8-20.03.72-30.05.76-3.73.04-7.46-.65-12.49-1.14,3.35-3.24,6.21-5.98,9.06-8.72,5.48-5.26,11.54-10.02,16.3-15.84,7.96-9.79,15.46-20.03,22.47-30.5,5.56-8.26,10.13-17.18,15.12-25.82,6.4-11.16,12.45-22.54,19.38-33.36,7.43-11.65,18.58-19.12,31.11-24.49,13.02-5.6,26.77-7.84,41.05-8.34-10.74,18.62-21.25,36.83-31.76,55.03ZM648.02,329.68c-3.31-5.45-8.8-6.36-14.78-6.74-11.54-.69-22.96-1.75-34.58-.76-12.22.99-24.18,2.63-35.95,6.02-16.38,4.72-31,12.53-43.57,24.03-11.04,10.09-19.42,22.16-25.78,35.68-.46.91-1.07,1.79-1.6,2.7-.61-1.79-.53-3.28-.38-4.68.65-5.29,1.9-10.55,1.83-15.84-.11-12.8-.42-25.63-1.49-38.39-.8-9.44-2.4-18.89-4.57-28.14-5.9-25.29-14.43-49.77-25.55-73.27-8.42-17.9-17.78-35.34-29.09-51.56-11.73-16.76-23.88-33.25-36.37-49.47-3.85-5.03-9.56-8.07-16.68-5.94-4.46,1.37-7.81,3.92-10.55,7.65-9.29,12.61-19.12,24.83-28.07,37.7-13.98,20.07-26.01,41.28-36.37,63.48-8,17.14-15.08,34.54-20.79,52.55-6.44,20.3-10.85,41.01-11.92,62.23-.72,14.43.53,28.9.88,42.88-.23-.34-1.03-1.49-1.83-2.63-6.97-9.52-13.48-19.42-20.98-28.52-8.99-10.85-20.83-18.16-33.55-24.22-16.41-7.81-33.74-11.54-51.72-11.96-12.3-.27-24.6.72-36.9,1.37-6.05.3-10.51,3.5-12.99,8.99-2.51,5.6-1.87,11.12,1.79,15.99,6.44,8.57,13.79,16.57,19.54,25.59,10.05,15.8,19.31,32.14,28.75,48.36,11.54,19.84,22.7,39.95,34.54,59.64,4.91,8.23,10.51,16.26,16.95,23.34,6.32,6.97,14.13,12.64,21.52,19.08-.11.08-.84.72-1.64,1.29-12.76,9.18-22.93,20.87-29.21,35.07-7.96,17.97-14.13,36.71-21.71,54.88-4.95,11.96-10.93,23.5-16.68,35.15-2.59,5.22-6.51,9.9-8.53,15.35-4.27,11.62,4.72,22.43,16.07,21.06,12.64-1.56,25.13-4.23,37.66-6.47,21.82-3.88,42.61-10.66,61.96-21.59,15.73-8.84,30.08-19.38,41.7-33.4,1.26-1.56,2.89-2.78,4.49-4.34,6.02,17.44,13.4,33.7,23.04,48.71,7.46,11.61,16.07,22.58,24.98,33.21,6.74,8,16.79,7.84,23.73-.11,6.51-7.39,12.53-15.35,17.82-23.69,7.12-11.23,13.6-22.93,19.84-34.69,3.85-7.31,6.74-15.12,10.13-22.89,6.02,5.22,12.03,10.47,18.09,15.73,9.48,8.26,20.03,15,31.08,20.98,11.96,6.51,24.52,11.81,37.66,15.31,13.06,3.5,26.39,6.21,39.64,8.91,5.9,1.22,12.07,1.14,17.94,2.48,4.15.95,7.77.15,11.04-1.75,8.07-4.8,9.86-13.25,5.94-21.06-4-7.92-9.41-15.23-12.87-23.38-9.94-23.38-19.12-47.15-28.87-70.64-4.91-11.84-11.12-23.04-20.34-32.26-4.99-4.99-10.21-9.67-15.31-14.47,16.57-7.84,28.07-21.21,37.28-36.75,9.48-16.03,18.62-32.29,27.95-48.44,9.52-16.45,19.04-32.9,28.75-49.24,7.69-12.99,16.15-25.4,26.12-36.79,6.55-7.46,7.12-13.71,2.48-21.33ZM296.75,602.66c-14.55,18.17-33.51,29.97-54.99,37.89-10.74,4-21.94,6.82-32.98,10.13-.84.23-1.79.15-3.08.27,2.51-6.89,4.76-13.33,7.16-19.69,5.79-15.16,11.65-30.24,17.4-45.36,4.8-12.8,11.58-24.33,22.09-33.13,7.85-6.55,16.91-11.01,27.23-12.38,6.4-.84,12.76-1.64,19.04.72,7.73,2.89,12.11,9.1,12.64,16.87,1.14,16.72-4.04,31.57-14.51,44.67ZM304.86,502.08c-9.1.19-18.24.34-27.34,0-16.57-.61-30.62-6.66-39.91-20.95-11.04-16.95-21.94-33.97-32.33-51.26-12.8-21.33-25.1-42.99-37.55-64.55-2.06-3.5-3.92-7.12-6.09-11.16,15.99,1.26,31.27,3.92,45.58,10.82,13.9,6.66,24.03,17.02,31.68,30.31,11.65,20.34,21.44,41.81,35.53,60.7,5.75,7.73,11.69,15.42,18.28,22.47,6.66,7.16,14.24,13.48,21.4,20.18.53.46.95,1.03,1.98,2.17-4.19.5-7.69,1.18-11.23,1.26ZM410.46,617.05c-6.85,17.94-16.49,34.43-26.96,50.46-.34.53-.57,1.1-1.14,2.21-3.81-5.64-7.27-10.21-10.21-15.12-8.87-14.78-17.25-29.86-21.74-46.61-2.25-8.42-3.81-17.1-5.1-25.74-2.02-12.99-1.41-25.9,3.62-38.23,4.49-11.01,10.24-21.06,21.71-26.5,10.55-5.03,20.45-3.77,29.55,3.16,10.17,7.77,15.04,18.96,17.86,30.92,1.56,6.66,2.48,13.71,2.21,20.53-.61,15.46-4.27,30.47-9.79,44.94ZM437.27,441.49c-9.14,12.8-20.37,22.93-35.68,27.53-5.26,1.56-10.82,2.21-16.3,2.86-16.41,1.94-30.66-3.77-43.03-13.86-8.76-7.16-16.11-15.84-21.67-25.86-8.11-14.55-13.25-30.16-15.08-46.69-1.26-11.62-2.44-23.31-2.09-34.92.53-16.98,3.85-33.66,8.49-50.08,7.2-25.36,17.44-49.43,29.74-72.62,9.79-18.39,20.79-36.06,33.28-52.78,2.82-3.73,5.6-7.5,9.03-12.07,12.07,19.42,23.65,37.82,35,56.36,13.06,21.33,23.34,43.95,31,67.75,4.72,14.78,8.68,29.78,10.21,45.24,1.14,11.61,2.55,23.31,2.06,34.92-1.14,27-9.06,51.98-24.94,74.22ZM525.89,568.8c10.28,18.28,16.91,38.12,24.22,57.66,3.01,7.96,5.98,15.88,9.44,25.06-6.06-1.56-11.16-2.78-16.18-4.19-12.99-3.62-25.63-8.11-37.55-14.47-10.13-5.41-19.5-11.88-28.03-19.73-10.21-9.33-17.78-20.18-21.52-33.51-2.51-9.03-3.66-18.32-.11-27.42,3.31-8.45,10.24-12.87,18.74-13.06,22.81-.53,39.8,9.83,50.99,29.67ZM570.9,409.62c-8.3,14.36-16.22,28.94-24.94,43.07-7.16,11.65-14.4,23.5-23.15,33.93-8,9.48-19.54,14.43-32.1,15.42-9.98.8-20.03.72-30.05.76-3.73.04-7.46-.65-12.49-1.14,3.35-3.24,6.21-5.98,9.06-8.72,5.48-5.26,11.54-10.02,16.3-15.84,7.96-9.79,15.46-20.03,22.47-30.5,5.56-8.26,10.13-17.18,15.12-25.82,6.4-11.16,12.45-22.54,19.38-33.36,7.43-11.65,18.58-19.12,31.11-24.49,13.02-5.6,26.77-7.84,41.05-8.34-10.74,18.62-21.25,36.83-31.76,55.03ZM382.13,34.21C171.5,34.21.17,205.54.17,416.13c0,32.1,4,63.29,11.5,93.11l27.15-27.15c-4.15-21.36-6.28-43.41-6.28-65.96,0-192.73,156.82-349.56,349.59-349.56s349.56,156.82,349.56,349.56-156.82,349.59-349.56,349.59c-22.54,0-44.56-2.13-65.92-6.28l-27.19,27.19c29.82,7.46,61.01,11.46,93.11,11.46,210.59,0,381.92-171.33,381.92-381.96S592.72,34.21,382.13,34.21Z"/>
  <path class="uuid-a4aa79eb-a63e-4b7a-a54a-01fdd58c2cd4" d="M382.04,34.34C171.28,34.34,0,205.62,0,416.39s171.28,381.55,382.04,381.55,382.04-171.28,382.04-381.55S592.81,34.34,382.04,34.34ZM382.04,765.85c-192.99,0-349.46-156.96-349.46-349.47S189.05,66.43,382.04,66.43s349.47,156.96,349.47,349.96-156.96,349.47-349.47,349.47Z"/>
</svg>